<?xml version="1.0" encoding="UTF-8" standalone="no"?>
<!DOCTYPE svg PUBLIC "-//W3C//DTD SVG 1.1//EN"
 "http://www.w3.org/Graphics/SVG/1.1/DTD/svg11.dtd">
<!-- Generated by graphviz version 2.43.0 (0)
 -->
<!-- Title: G Pages: 1 -->
<svg width="714pt" height="534pt"
 viewBox="0.00 0.00 714.33 534.28" xmlns="http://www.w3.org/2000/svg" xmlns:xlink="http://www.w3.org/1999/xlink">
<g id="graph0" class="graph" transform="scale(1 1) rotate(0) translate(4 530.28)">
<title>G</title><style>.edge>path:hover{stroke-width:8}</style>
<polygon fill="white" stroke="transparent" points="-4,4 -4,-530.28 710.33,-530.28 710.33,4 -4,4"/>
<!-- camera -->
<g id="node1" class="node">
<title>camera</title><style>.edge>path:hover{stroke-width:8}</style>
<ellipse fill="#b69d53" stroke="black" cx="265" cy="-205.43" rx="31.4" ry="18"/>
<text text-anchor="middle" x="265" y="-202.93" font-family="Helvetica,sans-Serif" font-size="10.00" fill="#000000">camera</text>
</g>
<!-- libs -->
<g id="node5" class="node">
<title>libs</title><style>.edge>path:hover{stroke-width:8}</style>
<polygon fill="blue" stroke="black" points="382,-151.43 328,-151.43 328,-115.43 382,-115.43 382,-151.43"/>
<text text-anchor="middle" x="355" y="-130.93" font-family="Helvetica,sans-Serif" font-size="10.00" fill="white">libs</text>
</g>
<!-- camera&#45;&gt;libs -->
<g id="edge1" class="edge">
<title>camera&#45;&gt;libs</title><style>.edge>path:hover{stroke-width:8}</style>
<path fill="none" stroke="black" d="M282.78,-190.6C294.86,-181.2 311.12,-168.55 325.16,-157.64"/>
<polygon fill="#b69d53" stroke="black" points="327.37,-160.35 333.12,-151.45 323.08,-154.82 327.37,-160.35"/>
</g>
<!-- camera_function_cam -->
<g id="node2" class="node">
<title>camera_function_cam</title><style>.edge>path:hover{stroke-width:8}</style>
<polygon fill="blue" stroke="black" points="335.5,-39.21 252.5,-39.21 252.5,-3.21 335.5,-3.21 335.5,-39.21"/>
<text text-anchor="middle" x="294" y="-24.21" font-family="Helvetica,sans-Serif" font-size="10.00" fill="white">camera.</text>
<text text-anchor="middle" x="294" y="-13.21" font-family="Helvetica,sans-Serif" font-size="10.00" fill="white">function_cam</text>
</g>
<!-- camera_initial_cam -->
<g id="node3" class="node">
<title>camera_initial_cam</title><style>.edge>path:hover{stroke-width:8}</style>
<ellipse fill="#a48d46" stroke="black" cx="246" cy="-280.64" rx="50.41" ry="21.43"/>
<text text-anchor="middle" x="246" y="-283.64" font-family="Helvetica,sans-Serif" font-size="10.00" fill="#000000">camera.</text>
<text text-anchor="middle" x="246" y="-272.64" font-family="Helvetica,sans-Serif" font-size="10.00" fill="#000000">initial_cam</text>
</g>
<!-- camera_initial_cam&#45;&gt;libs -->
<g id="edge3" class="edge">
<title>camera_initial_cam&#45;&gt;libs</title><style>.edge>path:hover{stroke-width:8}</style>
<path fill="none" stroke="black" d="M276.4,-263.52C295.78,-251.02 318.29,-231.6 324,-206.43"/>
</g>
<!-- cv2 -->
<g id="node4" class="node">
<title>cv2</title><style>.edge>path:hover{stroke-width:8}</style>
<ellipse fill="#80c040" stroke="black" cx="27" cy="-396.07" rx="27" ry="18"/>
<text text-anchor="middle" x="27" y="-393.57" font-family="Helvetica,sans-Serif" font-size="10.00" fill="#000000">cv2</text>
</g>
<!-- cv2&#45;&gt;camera_initial_cam -->
<g id="edge4" class="edge">
<title>cv2&#45;&gt;camera_initial_cam</title><style>.edge>path:hover{stroke-width:8}</style>
<path fill="none" stroke="black" d="M130,-337.85C152.48,-323.22 179.35,-309.96 201.56,-300.01"/>
<polygon fill="#80c040" stroke="black" points="203.03,-303.18 210.76,-295.95 200.2,-296.78 203.03,-303.18"/>
</g>
<!-- cv2&#45;&gt;libs -->
<g id="edge5" class="edge">
<title>cv2&#45;&gt;libs</title><style>.edge>path:hover{stroke-width:8}</style>
<path fill="none" stroke="black" d="M47.15,-383.67C52.3,-380.77 57.85,-377.68 63,-374.85 92.63,-358.58 101.67,-357.29 130,-338.85"/>
<path fill="none" stroke="black" d="M130,-337.85C155.27,-321.4 148.12,-304.32 168,-281.64"/>
<path fill="none" stroke="black" d="M168,-279.64C176.13,-270.37 176.53,-265.94 187,-259.43 242.44,-224.96 308.37,-269.81 324,-206.43"/>
<path fill="none" stroke="black" d="M324,-204.43C327.7,-189.41 334.44,-173.59 340.69,-160.79"/>
<polygon fill="#80c040" stroke="black" points="343.92,-162.16 345.32,-151.66 337.68,-159 343.92,-162.16"/>
</g>
<!-- libs&#45;&gt;camera_function_cam -->
<g id="edge6" class="edge">
<title>libs&#45;&gt;camera_function_cam</title><style>.edge>path:hover{stroke-width:8}</style>
<path fill="none" stroke="black" d="M340.53,-106.29C330.86,-88.81 318.18,-65.89 308.5,-48.4"/>
<polygon fill="blue" stroke="black" points="337.56,-108.15 345.47,-115.21 343.69,-104.76 337.56,-108.15"/>
<polygon fill="blue" stroke="black" points="311.37,-46.37 303.46,-39.31 305.24,-49.76 311.37,-46.37"/>
</g>
<!-- main_process_py -->
<g id="node6" class="node">
<title>main_process_py</title><style>.edge>path:hover{stroke-width:8}</style>
<ellipse fill="#59a6a6" stroke="black" cx="415" cy="-21.21" rx="61.54" ry="21.43"/>
<text text-anchor="middle" x="415" y="-24.21" font-family="Helvetica,sans-Serif" font-size="10.00" fill="#000000">main_process.</text>
<text text-anchor="middle" x="415" y="-13.21" font-family="Helvetica,sans-Serif" font-size="10.00" fill="#000000">py</text>
</g>
<!-- libs&#45;&gt;main_process_py -->
<g id="edge7" class="edge">
<title>libs&#45;&gt;main_process_py</title><style>.edge>path:hover{stroke-width:8}</style>
<path fill="none" stroke="black" d="M364.38,-115.21C373.69,-98.09 388.15,-71.52 399.24,-51.16"/>
<polygon fill="blue" stroke="black" points="402.36,-52.76 404.06,-42.3 396.21,-49.41 402.36,-52.76"/>
</g>
<!-- numpy -->
<g id="node7" class="node">
<title>numpy</title><style>.edge>path:hover{stroke-width:8}</style>
<ellipse fill="#2653d9" stroke="black" cx="286" cy="-508.28" rx="29.37" ry="18"/>
<text text-anchor="middle" x="286" y="-505.78" font-family="Helvetica,sans-Serif" font-size="10.00" fill="#ffffff">numpy</text>
</g>
<!-- numpy&#45;&gt;cv2 -->
<g id="edge8" class="edge">
<title>numpy&#45;&gt;cv2</title><style>.edge>path:hover{stroke-width:8}</style>
<path fill="none" stroke="black" d="M290.3,-490.3C292.12,-479.25 292.53,-464.96 286,-454.28"/>
<path fill="none" stroke="black" d="M286,-453.28C259.82,-410.45 110.39,-433.82 63,-417.28 60.27,-416.33 57.51,-415.17 54.79,-413.91"/>
<polygon fill="#2653d9" stroke="black" points="56.33,-410.76 45.84,-409.28 53.12,-416.98 56.33,-410.76"/>
</g>
<!-- numpy&#45;&gt;libs -->
<g id="edge9" class="edge">
<title>numpy&#45;&gt;libs</title><style>.edge>path:hover{stroke-width:8}</style>
<path fill="none" stroke="black" d="M286,-453.28C245.25,-386.62 311.63,-358.79 324,-281.64"/>
</g>
<!-- pypylon_pylon -->
<g id="node9" class="node">
<title>pypylon_pylon</title><style>.edge>path:hover{stroke-width:8}</style>
<ellipse fill="#7a3db8" stroke="black" cx="207" cy="-396.07" rx="50.75" ry="18"/>
<text text-anchor="middle" x="207" y="-393.57" font-family="Helvetica,sans-Serif" font-size="10.00" fill="#ffffff">pypylon.pylon</text>
</g>
<!-- numpy&#45;&gt;pypylon_pylon -->
<g id="edge10" class="edge">
<title>numpy&#45;&gt;pypylon_pylon</title><style>.edge>path:hover{stroke-width:8}</style>
<path fill="none" stroke="black" d="M286,-453.28C276.39,-437.55 260.54,-424.99 245.56,-415.77"/>
<polygon fill="#2653d9" stroke="black" points="247.29,-412.73 236.89,-410.73 243.77,-418.78 247.29,-412.73"/>
</g>
<!-- pypylon -->
<g id="node8" class="node">
<title>pypylon</title><style>.edge>path:hover{stroke-width:8}</style>
<ellipse fill="#853bce" stroke="black" cx="105" cy="-396.07" rx="32.93" ry="18"/>
<text text-anchor="middle" x="105" y="-393.57" font-family="Helvetica,sans-Serif" font-size="10.00" fill="#ffffff">pypylon</text>
</g>
<!-- pypylon&#45;&gt;camera_initial_cam -->
<g id="edge11" class="edge">
<title>pypylon&#45;&gt;camera_initial_cam</title><style>.edge>path:hover{stroke-width:8}</style>
<path fill="none" stroke="black" d="M168,-337.85C179.38,-324.66 194.44,-312.89 208.29,-303.56"/>
<polygon fill="#853bce" stroke="black" points="210.24,-306.47 216.71,-298.08 206.42,-300.6 210.24,-306.47"/>
</g>
<!-- pypylon&#45;&gt;libs -->
<g id="edge12" class="edge">
<title>pypylon&#45;&gt;libs</title><style>.edge>path:hover{stroke-width:8}</style>
<path fill="none" stroke="black" d="M123.26,-380.93C136.51,-370.19 154.4,-354.61 168,-338.85"/>
<path fill="none" stroke="black" d="M168,-337.85C184.32,-318.93 151.53,-300.43 168,-281.64"/>
</g>
<!-- pypylon_pylon&#45;&gt;camera_initial_cam -->
<g id="edge13" class="edge">
<title>pypylon_pylon&#45;&gt;camera_initial_cam</title><style>.edge>path:hover{stroke-width:8}</style>
<path fill="none" stroke="black" d="M219.52,-378.57C227.81,-367.48 238.81,-352.47 248,-338.85"/>
<path fill="none" stroke="black" d="M248,-337.85C253.12,-330.27 254.23,-320.7 253.57,-311.62"/>
<polygon fill="#7a3db8" stroke="black" points="257.03,-311.13 252.19,-301.71 250.1,-312.09 257.03,-311.13"/>
</g>
<!-- pypylon_pylon&#45;&gt;libs -->
<g id="edge14" class="edge">
<title>pypylon_pylon&#45;&gt;libs</title><style>.edge>path:hover{stroke-width:8}</style>
<path fill="none" stroke="black" d="M248,-337.85C271.51,-303.03 317.35,-323.12 324,-281.64"/>
<path fill="none" stroke="black" d="M324,-279.64C329.15,-247.51 316.8,-238.16 324,-206.43"/>
</g>
<!-- PyQt5 -->
<g id="node10" class="node">
<title>PyQt5</title><style>.edge>path:hover{stroke-width:8}</style>
<ellipse fill="#c24747" stroke="black" cx="341" cy="-396.07" rx="27.16" ry="18"/>
<text text-anchor="middle" x="341" y="-393.57" font-family="Helvetica,sans-Serif" font-size="10.00" fill="#ffffff">PyQt5</text>
</g>
<!-- PyQt5&#45;&gt;libs -->
<g id="edge15" class="edge">
<title>PyQt5&#45;&gt;libs</title><style>.edge>path:hover{stroke-width:8}</style>
<path fill="none" stroke="black" d="M332.03,-378.64C327,-367.59 322.08,-352.59 324,-338.85"/>
<path fill="none" stroke="black" d="M324,-337.85C327.46,-313.11 320.04,-306.31 324,-281.64"/>
</g>
<!-- pyqt5_ui_gui -->
<g id="node15" class="node">
<title>pyqt5_ui_gui</title><style>.edge>path:hover{stroke-width:8}</style>
<ellipse fill="#964081" stroke="black" cx="397" cy="-280.64" rx="45.15" ry="18"/>
<text text-anchor="middle" x="397" y="-278.14" font-family="Helvetica,sans-Serif" font-size="10.00" fill="#ffffff">pyqt5_ui.gui</text>
</g>
<!-- PyQt5&#45;&gt;pyqt5_ui_gui -->
<g id="edge16" class="edge">
<title>PyQt5&#45;&gt;pyqt5_ui_gui</title><style>.edge>path:hover{stroke-width:8}</style>
<path fill="none" stroke="black" d="M324,-337.85C326.46,-320.24 340.55,-307.32 355.71,-298.34"/>
<polygon fill="#c24747" stroke="black" points="357.54,-301.34 364.68,-293.51 354.21,-295.17 357.54,-301.34"/>
</g>
<!-- PyQt5_QtCore -->
<g id="node11" class="node">
<title>PyQt5_QtCore</title><style>.edge>path:hover{stroke-width:8}</style>
<ellipse fill="#c24747" stroke="black" cx="435" cy="-396.07" rx="48.72" ry="18"/>
<text text-anchor="middle" x="435" y="-393.57" font-family="Helvetica,sans-Serif" font-size="10.00" fill="#ffffff">PyQt5.QtCore</text>
</g>
<!-- PyQt5_QtCore&#45;&gt;libs -->
<g id="edge17" class="edge">
<title>PyQt5_QtCore&#45;&gt;libs</title><style>.edge>path:hover{stroke-width:8}</style>
<path fill="none" stroke="black" d="M406.49,-381.35C390.27,-371.87 371.38,-357.59 362,-338.85"/>
<path fill="none" stroke="black" d="M362,-337.85C348.51,-310.88 319.22,-311.42 324,-281.64"/>
</g>
<!-- PyQt5_QtCore&#45;&gt;pyqt5_ui_gui -->
<g id="edge18" class="edge">
<title>PyQt5_QtCore&#45;&gt;pyqt5_ui_gui</title><style>.edge>path:hover{stroke-width:8}</style>
<path fill="none" stroke="black" d="M362,-337.85C356.32,-326.5 362.06,-314.47 370.42,-304.47"/>
<polygon fill="#c24747" stroke="black" points="373.21,-306.62 377.52,-296.94 368.11,-301.82 373.21,-306.62"/>
</g>
<!-- PyQt5_QtGui -->
<g id="node12" class="node">
<title>PyQt5_QtGui</title><style>.edge>path:hover{stroke-width:8}</style>
<ellipse fill="#c24747" stroke="black" cx="661" cy="-396.07" rx="45.15" ry="18"/>
<text text-anchor="middle" x="661" y="-393.57" font-family="Helvetica,sans-Serif" font-size="10.00" fill="#ffffff">PyQt5.QtGui</text>
</g>
<!-- PyQt5_QtGui&#45;&gt;libs -->
<g id="edge19" class="edge">
<title>PyQt5_QtGui&#45;&gt;libs</title><style>.edge>path:hover{stroke-width:8}</style>
<path fill="none" stroke="black" d="M508,-337.85C475.66,-316.54 487.67,-293.89 470,-259.43 453.39,-227.04 455.25,-214.57 431,-187.43 419.66,-174.73 404.71,-163.48 391.07,-154.64"/>
<polygon fill="#c24747" stroke="black" points="392.68,-151.52 382.35,-149.19 388.97,-157.46 392.68,-151.52"/>
</g>
<!-- PyQt5_QtGui&#45;&gt;pyqt5_ui_gui -->
<g id="edge20" class="edge">
<title>PyQt5_QtGui&#45;&gt;pyqt5_ui_gui</title><style>.edge>path:hover{stroke-width:8}</style>
<path fill="none" stroke="black" d="M629.32,-383.15C622,-380.41 614.23,-377.52 607,-374.85 563.08,-358.65 547.09,-364.62 508,-338.85"/>
<path fill="none" stroke="black" d="M508,-337.85C485.22,-322.84 457.9,-308.95 436.06,-298.74"/>
<polygon fill="#c24747" stroke="black" points="437.31,-295.46 426.76,-294.46 434.38,-301.82 437.31,-295.46"/>
</g>
<!-- PyQt5_QtWidgets -->
<g id="node13" class="node">
<title>PyQt5_QtWidgets</title><style>.edge>path:hover{stroke-width:8}</style>
<ellipse fill="#c24747" stroke="black" cx="550" cy="-396.07" rx="48.17" ry="21.43"/>
<text text-anchor="middle" x="550" y="-399.07" font-family="Helvetica,sans-Serif" font-size="10.00" fill="#ffffff">PyQt5.</text>
<text text-anchor="middle" x="550" y="-388.07" font-family="Helvetica,sans-Serif" font-size="10.00" fill="#ffffff">QtWidgets</text>
</g>
<!-- PyQt5_QtWidgets&#45;&gt;libs -->
<g id="edge21" class="edge">
<title>PyQt5_QtWidgets&#45;&gt;libs</title><style>.edge>path:hover{stroke-width:8}</style>
<path fill="none" stroke="black" d="M470,-337.85C445.43,-311.73 475.27,-285.83 451,-259.43 409.61,-214.4 310.46,-266.07 324,-206.43"/>
</g>
<!-- PyQt5_QtWidgets&#45;&gt;pyqt5_ui_gui -->
<g id="edge22" class="edge">
<title>PyQt5_QtWidgets&#45;&gt;pyqt5_ui_gui</title><style>.edge>path:hover{stroke-width:8}</style>
<path fill="none" stroke="black" d="M521.17,-378.83C504.89,-368.73 484.89,-354.68 470,-338.85"/>
<path fill="none" stroke="black" d="M470,-337.85C457.57,-324.63 441.81,-312.09 428.13,-302.22"/>
<polygon fill="#c24747" stroke="black" points="430.11,-299.34 419.92,-296.44 426.08,-305.06 430.11,-299.34"/>
</g>
<!-- pyqt5_ui -->
<g id="node14" class="node">
<title>pyqt5_ui</title><style>.edge>path:hover{stroke-width:8}</style>
<ellipse fill="#c247a3" stroke="black" cx="387" cy="-205.43" rx="34.96" ry="18"/>
<text text-anchor="middle" x="387" y="-202.93" font-family="Helvetica,sans-Serif" font-size="10.00" fill="#ffffff">pyqt5_ui</text>
</g>
<!-- pyqt5_ui&#45;&gt;libs -->
<g id="edge23" class="edge">
<title>pyqt5_ui&#45;&gt;libs</title><style>.edge>path:hover{stroke-width:8}</style>
<path fill="none" stroke="black" d="M379.42,-187.84C375.78,-179.88 371.33,-170.15 367.23,-161.18"/>
<polygon fill="#c247a3" stroke="black" points="370.32,-159.51 362.98,-151.87 363.95,-162.42 370.32,-159.51"/>
</g>
<!-- pyqt5_ui_gui&#45;&gt;libs -->
<g id="edge24" class="edge">
<title>pyqt5_ui_gui&#45;&gt;libs</title><style>.edge>path:hover{stroke-width:8}</style>
<path fill="none" stroke="black" d="M368.11,-266.63C345.18,-254.13 317.92,-233.21 324,-206.43"/>
</g>
</g>
</svg>
